<svg xmlns="http://www.w3.org/2000/svg">

	<symbol id="sport1" viewBox="0 0 40 40">
		<path d="M18.09,7.28a2.87,2.87,0,0,0-.92,1.9,2.46,2.46,0,0,0,.86,2L28.85,22a2.88,2.88,0,0,0,2,.86h0a2.48,2.48,0,0,0,2-.86l.12-.12a2.9,2.9,0,0,0,.86-2,2.48,2.48,0,0,0-.86-2l-.49-.37a2.7,2.7,0,0,0,1-.61l.12-.13a2.91,2.91,0,0,0,.87-2,2.46,2.46,0,0,0-.87-2L32.05,11.4l1.47-1.48a.82.82,0,0,0,.07-1.16l-.07-.07L31.31,6.48a.89.89,0,0,0-1.23,0L28.61,8,27.13,6.48a2.8,2.8,0,0,0-2-.74,2.44,2.44,0,0,0-2,.86l-.13.12a2.74,2.74,0,0,0-.61,1l-.37-.37a2.88,2.88,0,0,0-2-.86A3,3,0,0,0,18.09,7.28Zm12.61,1,1,1-.86.86-1-1Zm-6.4-.49h0a1.4,1.4,0,0,1,.86-.37.86.86,0,0,1,.74.37l6.27,6.27a1.06,1.06,0,0,1,.37.74.87.87,0,0,1-.37.74l-.12.12a1.29,1.29,0,0,1-1.6,0L24.3,9.43A1.06,1.06,0,0,1,24.18,8Zm7.26,12.91a1.4,1.4,0,0,1-.86.37.86.86,0,0,1-.74-.37L19.14,9.92a1.06,1.06,0,0,1-.37-.74,1.12,1.12,0,0,1,.37-.8A1.44,1.44,0,0,1,20,8.07a.93.93,0,0,1,.74.37L31.56,19.26a1.22,1.22,0,0,1,.18,1.29A.79.79,0,0,1,31.56,20.74Z"/>
		<path d="M22.83,18.16l-5.66,5.65-1-1,5.65-5.66L20.61,16,15,21.6l-3.69-3.69a2.9,2.9,0,0,0-2-.86,2.44,2.44,0,0,0-2,.86L7.21,18a2.94,2.94,0,0,0-.86,2,2.46,2.46,0,0,0,.86,2l.37.37a2.7,2.7,0,0,0-1,.61l-.12.13a2.91,2.91,0,0,0-.87,2,2.44,2.44,0,0,0,.87,2L8,28.49,6.48,30a.89.89,0,0,0,0,1.23L8.69,33.4a1,1,0,0,0,.61.25,1,1,0,0,0,.62-.25l1.47-1.48,1.48,1.48a2.85,2.85,0,0,0,2,.86,2.46,2.46,0,0,0,2-.86l.12-.12a2.63,2.63,0,0,0,.62-1l.49.49a2.93,2.93,0,0,0,2,.87,2.46,2.46,0,0,0,2-.87l.12-.12a2.89,2.89,0,0,0,0-4.06L18.4,24.92l5.66-5.66ZM9.3,31.68l-1-1,.87-.86,1,1Zm6.4.49h0a1.16,1.16,0,0,1-1.6.13L7.83,26a1.08,1.08,0,0,1-.37-.74.87.87,0,0,1,.37-.74L8,24.43a1.06,1.06,0,0,1,.74-.37.85.85,0,0,1,.73.37l6.27,6.27A.92.92,0,0,1,15.88,32a.81.81,0,0,1-.19.18Zm5.16-.61h0a1.17,1.17,0,0,1-1.6.12L8.44,20.86a1.08,1.08,0,0,1-.37-.73.89.89,0,0,1,.37-.74l.13-.13a1,1,0,0,1,.73-.36.88.88,0,0,1,.74.36L20.86,30.08a1.13,1.13,0,0,1,0,1.48Z"/>
	</symbol>

	<symbol id="car1" viewBox="0 0 40 40">
		<path d="M36.6,21.86c-.26-2.83-7-5.45-8.83-6L23.9,11.33c-.12-.12-.24-.24-.36-.24-5.33-1.69-11.86.24-12.1.24-6.53,1.45-7.5,5.93-7.5,6.17v3.27a5,5,0,0,0-.37,4.11,4.17,4.17,0,0,0,2.3,2.18H6c0-.36-.12-.6-.12-1A2,2,0,0,1,6,25.25a2.11,2.11,0,0,1-.72-1,3.9,3.9,0,0,1,.24-3c0-.12.12-.24.12-.36V17.75c.12-.49,1.09-3.63,6.17-4.84a22.8,22.8,0,0,1,3.75-.73v4H9.14a.85.85,0,0,0-.85.85.84.84,0,0,0,.85.84H28.62C31.52,19,34.79,20.72,35,22c.3,1.9-.3,2.31-1.17,3a3.21,3.21,0,0,1,0,1.82,7.14,7.14,0,0,0,1.82-1.33A4.5,4.5,0,0,0,36.6,21.86Zm-19.35-9.8a16.33,16.33,0,0,1,5.44.48l3.15,3.63H17.25Z"/>
		<path d="M28.86,22.34a3.66,3.66,0,0,0-3.63,3.15H14.58a3.67,3.67,0,1,0-3.74,4.11H11a3.51,3.51,0,0,0,3.38-2.42h11a3.61,3.61,0,0,0,7-1.08V26a3.46,3.46,0,0,0-3.29-3.62ZM11,27.91A1.94,1.94,0,1,1,12.89,26h0A1.91,1.91,0,0,1,11,27.91Zm17.9,0a1.92,1.92,0,1,1,.05,0Z"/>
	</symbol>

	<symbol id="food1" viewBox="0 0 40 40">
		<path d="M14,14a.79.79,0,0,0,.81-.77V5.09A.79.79,0,0,0,14,4.28h0a.79.79,0,0,0-.81.77v8A.88.88,0,0,0,14,14Z"/>
		<path d="M16.86,14a.79.79,0,0,0,.81-.77v-8a.8.8,0,0,0-.77-.81h0c-.46,0-.81.23-.81.7v8A.9.9,0,0,0,16.86,14Z"/>
		<path d="M19.75,4.16a.79.79,0,0,0-.81.77V15.38a1,1,0,0,1-1,1H16.86c-.35,0-.81.23-.81,1v17a.54.54,0,0,1-.51.58h-.3a.55.55,0,0,1-.58-.51V17.46a1,1,0,0,0-.81-1h-.92a1.27,1.27,0,0,1-.81-.35,1,1,0,0,1-.35-.81V4.86A.79.79,0,0,0,11,4.05h0c-.46,0-.69.35-.69.92V15.38a2.3,2.3,0,0,0,.81,1.85,2.78,2.78,0,0,0,1.85.81H13v16.3a2.28,2.28,0,0,0,2.2,2.2h.23a2.28,2.28,0,0,0,2.2-2.2V18h.11a2.62,2.62,0,0,0,2.66-2.58V5A.75.75,0,0,0,19.75,4.16Z"/>
		<path d="M29.69,5.67c0-.93,0-2.43-1.39-2.43a1.06,1.06,0,0,0-.58.11,4.84,4.84,0,0,0-3.23,3.59v.12l-1.27,13.4a.75.75,0,0,0,.46.81l1.27.58V34.57a2.2,2.2,0,0,0,2.19,2.2h.24a2.19,2.19,0,0,0,2.19-2.2h0Zm-2.2,29.47h-.23a.55.55,0,0,1-.58-.51V21.27a.62.62,0,0,0-.45-.69L25.07,20,26.22,7.17A3.65,3.65,0,0,1,28.07,5v29.6A.61.61,0,0,1,27.49,35.14Z"/>
	</symbol>

	<symbol id="work1" viewBox="0 0 40 40">
		<path d="M16.09,8a.79.79,0,0,1,.73-.74h6.23a.8.8,0,0,1,.74.74V9.48H25.5V8a2.47,2.47,0,0,0-2.45-2.45H16.82A2.46,2.46,0,0,0,14.38,8V9.48h1.71Z"/>
		<path d="M32.46,11.31H7.54A2.46,2.46,0,0,0,5.1,13.76V29.88a2.46,2.46,0,0,0,2.44,2.44H32.46a2.46,2.46,0,0,0,2.44-2.44V13.76A2.46,2.46,0,0,0,32.46,11.31Zm.73,18.57a.79.79,0,0,1-.73.73H7.54a.79.79,0,0,1-.73-.73V13.76A.79.79,0,0,1,7.54,13H32.46a.79.79,0,0,1,.73.74Z"/>
		<path d="M10.11,15.83a.7.7,0,0,0-.73.68.06.06,0,0,0,0,.06V27a.78.78,0,0,0,.73.73.79.79,0,0,0,.73-.73V16.57A.79.79,0,0,0,10.11,15.83Z"/>
		<path d="M29.89,15.83a.79.79,0,0,0-.73.74V27a.73.73,0,0,0,1.46,0V16.57a.71.71,0,0,0-.67-.74Z"/>
	</symbol>

	<symbol id="cellphone1" viewBox="0 0 40 40">
		<path d="M26.33,4.76H13.63a2.42,2.42,0,0,0-2.42,2.42V32.82a2.42,2.42,0,0,0,2.42,2.42h12.7a2.43,2.43,0,0,0,2.42-2.42V7.18A2.42,2.42,0,0,0,26.33,4.76Zm.73,22.5H12.9V10.68H27.06ZM13.63,6.45h12.7a.78.78,0,0,1,.72.73V9H12.9V7.18A.79.79,0,0,1,13.63,6.45Zm12.7,27.1H13.63a.79.79,0,0,1-.73-.73V29H27.06v3.75a.82.82,0,0,1-.73.85Z"/>
		<circle cx="20.04" cy="31.13" r="1.09"/>
	</symbol>

	<symbol id="travel1" viewBox="0 0 40 40">
		<path d="M35.92,16.79h0c0-.11-.12-.11-.12-.23-.11-.34-.45-.67-1.69-1.24-2-.9-5.63,0-6,.12L10.55,19.83,5.14,17.69a1,1,0,0,0-.79.11L4,18.14a.87.87,0,0,0-.11,1.13l2.7,3.16-1.69.45c-.22,0-.34.22-.45.33a1.22,1.22,0,0,0-.11.56l.22.79a.94.94,0,0,0,.56.56c4.29,1.35,10.82,0,11.16-.11l.79-.23-2.37,6.43a.52.52,0,0,0,0,.56,2,2,0,0,0,1.47,1.13h.34c1.13,0,2.25-.79,3.72-2.48h0l5.41-7.67,9.13-2.36a1.77,1.77,0,0,0,1.35-1.13A3.63,3.63,0,0,0,35.92,16.79Zm-1.36,1.8a1.36,1.36,0,0,1-.34.23l-9.35,2.36c-.23,0-.34.12-.45.34l-5.53,7.9c-1.57,1.91-2.36,1.91-2.48,1.91H16.3L19,24a.94.94,0,0,0-.11-.78A.7.7,0,0,0,18.1,23l-2.25.56c-.12,0-5.19,1.13-9,.45l1.35-.34a.91.91,0,0,0,.56-.56,1,1,0,0,0-.11-.79l-2-2.37,3.72,1.47a.35.35,0,0,0,.45,0L28.59,16.9a11.08,11.08,0,0,1,4.51-.34l-1.24.34a.82.82,0,0,0-.58,1,.83.83,0,0,0,1,.58h0l2.59-.68C34.68,18.14,34.68,18.48,34.56,18.59Z"/>
		<path d="M12.92,16.11l2.25,1.35h.12l2-.45-1.58-.9a16,16,0,0,1,3.38.45l2.94-.67a17.65,17.65,0,0,0-6.32-1.36,9.85,9.85,0,0,0-2.59.34.72.72,0,0,0-.56.68C12.47,15.66,12.58,15.89,12.92,16.11Z"/>
		<path d="M27.91,35.39H8.07a.79.79,0,0,0,0,1.58H28a.77.77,0,0,0,.79-.76v0A.87.87,0,0,0,27.91,35.39Z"/>
		<path d="M24.08,9h.79a3.35,3.35,0,0,0,.45,1.13l-.56.56a.75.75,0,0,0-.06,1.06l.06.06c.11.23.34.23.56.23a.88.88,0,0,0,.56-.23l.56-.56a4.45,4.45,0,0,0,1.13.45v.79a.79.79,0,1,0,1.57,0v-.79a3.27,3.27,0,0,0,1.13-.45l.56.56a.82.82,0,0,0,.68.23.93.93,0,0,0,.56-.23.75.75,0,0,0,.06-1.06l-.06-.06-.56-.56A5.22,5.22,0,0,0,32,9h.79a.79.79,0,0,0,0-1.58H32a3.35,3.35,0,0,0-.45-1.13l.56-.56a.75.75,0,0,0,.06-1.06l-.06-.06A.76.76,0,0,0,31,4.55a.23.23,0,0,0-.07.07l-.56.56a4.53,4.53,0,0,0-1.12-.45V3.82A.86.86,0,0,0,28.48,3a.77.77,0,0,0-.79.75v.83a3.48,3.48,0,0,0-1.13.45L26,4.51a.74.74,0,0,0-1.06-.07.23.23,0,0,0-.07.07.75.75,0,0,0-.06,1.06l.06.06.56.56A4.76,4.76,0,0,0,25,7.32h-.79a.77.77,0,0,0-.78.75v0a.67.67,0,0,0,.43.86A.64.64,0,0,0,24.08,9Zm4.4-2.82a2,2,0,1,1-2,2h0a2,2,0,0,1,1.88-2Z"/>
	</symbol>

	<symbol id="health1" viewBox="0 0 40 40">
		<path d="M16.09,8a.8.8,0,0,1,.74-.74h6.22a.8.8,0,0,1,.74.74V9.48H25.5V8a2.47,2.47,0,0,0-2.45-2.45H16.83A2.47,2.47,0,0,0,14.38,8V9.48h1.71Z"/>
		<path d="M32.46,11.31H7.55A2.47,2.47,0,0,0,5.1,13.76V29.88a2.46,2.46,0,0,0,2.45,2.44H32.46a2.46,2.46,0,0,0,2.44-2.44V13.76A2.46,2.46,0,0,0,32.46,11.31Zm.73,18.57a.79.79,0,0,1-.73.73H7.55a.79.79,0,0,1-.74-.73V13.76A.8.8,0,0,1,7.55,13H32.46a.79.79,0,0,1,.73.74Z"/>
		<path d="M22.57,15.71H17.44v3.54H13.9v5.13h3.54v3.54h5.13V24.38h3.54V19.25H22.57Zm2.07,5v2.2H21.1v3.54H18.9V22.92H15.36v-2.2H18.9V17.18h2.2v3.54Z"/>
		<path d="M10.11,15.83a.7.7,0,0,0-.73.68V27a.79.79,0,0,0,.73.73.79.79,0,0,0,.73-.73V16.57A.79.79,0,0,0,10.11,15.83Z"/>
		<path d="M29.89,15.83a.79.79,0,0,0-.73.74V27a.74.74,0,0,0,1.47,0V16.57a.72.72,0,0,0-.68-.74Z"/>
	</symbol>

	<symbol id="house1" viewBox="0 0 40 40">
		<path d="M36.34,19.16,20.5,5.44l-.12-.13h-.75l-.13.13-6.09,5.2v-2a.85.85,0,0,0-.83-.88H9.15a.85.85,0,0,0-.87.83v6.56h0L3.77,19a.9.9,0,0,0-.38,1,.94.94,0,0,0,.88.62H8.15V33.81a.85.85,0,0,0,.84.87H31.08a.84.84,0,0,0,.87-.83V20.66h3.89a1,1,0,0,0,.88-.62C36.72,19.79,36.72,19.28,36.34,19.16Zm-5.26-.25a.86.86,0,0,0-.88.83v13.2H9.91V19.79a.86.86,0,0,0-.84-.88H6.65L10,16V9.51h1.75v5l8.27-7.26L33.46,18.91Z"/>
		<rect x="12.35" y="27.77" width="14.64" height="1.69"/>
		<rect x="12.35" y="24.38" width="11.86" height="1.69"/>
		<rect x="12.35" y="21" width="8.23" height="1.69"/>
		<rect x="12.35" y="17.61" width="5.08" height="1.69"/>
	</symbol>

	<symbol id="clothes1" viewBox="0 0 40 40">
		<path d="M30.14,18a2.15,2.15,0,0,1-1.43-1c-1.64-2.52-.44-9.12.22-11.42A.68.68,0,0,0,28.82,5a.88.88,0,0,0-.65-.33l-3.3.11a1,1,0,0,0-.77.66c-.11.76-.22,1.42-.33,2a6.23,6.23,0,0,1-7.69,0c-.11-.55-.22-1.2-.33-2A.74.74,0,0,0,15,4.73l-3.19-.11a.92.92,0,0,0-.66.33c-.11.11-.11.44-.11.66.66,2.3,1.87,8.9.22,11.42a1.9,1.9,0,0,1-1.42,1,.94.94,0,0,0-.66.77V34.61a.74.74,0,0,0,.73.77H30a.75.75,0,0,0,.77-.73V18.79A.8.8,0,0,0,30.14,18ZM20,10.22a8.71,8.71,0,0,0,3.19-.66c-1.32,3-3.08,2.86-3.19,2.86h0c-.11,0-2,.11-3.18-3a6.42,6.42,0,0,0,3.18.77Zm9.23,23.63H10.7V19.34a3.87,3.87,0,0,0,1.86-1.43c1.87-3,.77-9.23.22-11.76h1.65c.44,3.3,1.54,5.61,3.08,6.82a3.78,3.78,0,0,0,2.52.88A3.83,3.83,0,0,0,22.56,13c1.54-1.21,2.64-3.52,3.08-6.82h1.64c-.55,2.42-1.64,8.79.22,11.76a3,3,0,0,0,1.87,1.43V33.85Z"/>
	</symbol>

	<symbol id="present1" viewBox="0 0 40 40">
		<path d="M29.79,6.65c-.26-1.12-1.23-3-3.18-3S22.56,5.49,20,9.28c-2.55-3.79-4.72-5.64-6.61-5.64s-2.91,1.89-3.18,3a3.16,3.16,0,0,0,.53,2.8c1.6,2.06,5.9,2.37,8.33,2.37l.93,0c.15,0,.48,0,.94,0,2.42,0,6.72-.31,8.33-2.37A3.13,3.13,0,0,0,29.79,6.65ZM12.1,8.38a1.46,1.46,0,0,1-.21-1.33s.43-1.68,1.5-1.68c.59,0,2.19.49,5.06,4.7-3.17-.07-5.58-.7-6.35-1.69Zm15.8,0c-.77,1-3.17,1.62-6.35,1.69,2.88-4.21,4.48-4.7,5.06-4.7,1.07,0,1.5,1.67,1.5,1.7a1.42,1.42,0,0,1-.21,1.31Z"/>
		<path d="M33.45,13.4H6.55a.86.86,0,0,0-.86.86V20a.87.87,0,0,0,.86.86h.94v13.2a.86.86,0,0,0,.86.86h23.3a.86.86,0,0,0,.87-.86V20.85h.93a.86.86,0,0,0,.86-.86V14.26A.85.85,0,0,0,33.45,13.4ZM21.13,33.19H18.88V15.12h2.25ZM7.42,15.12h9.73v4H7.42Zm1.8,5.73h7.93V33.19H9.22ZM30.79,33.19H22.85V20.85h7.94Zm1.8-14.07H22.85v-4h9.74Z"/>
	</symbol>

	<symbol id="calc1" viewBox="0 0 40 40">
		<path d="M27.88,5.77H12.12A2.6,2.6,0,0,0,9.53,8.36V31.64a2.6,2.6,0,0,0,2.59,2.59H27.89a2.59,2.59,0,0,0,2.58-2.59V8.36A2.59,2.59,0,0,0,27.88,5.77ZM12.12,7.58H27.88a.79.79,0,0,1,.78.78v6.19H11.34V8.36a.79.79,0,0,1,.78-.78ZM22.28,32.42H17.73V28.27h4.55Zm0-6H17.73V22.31h4.55Zm-6.36-4.15v4.15H11.34V22.31ZM11.34,20.5V16.36h4.58V20.5Zm6.39,0V16.36h4.56V20.5Zm6.37-4.14h4.56V20.5H24.1ZM11.35,31.64V28.27h4.57v4.15h-3.8a.8.8,0,0,1-.78-.78Zm16.54.78H24.1V22.31h4.56v9.33a.79.79,0,0,1-.78.78Z"/>
		<rect x="24.88" y="9.56" width="1.81" height="3.11"/>
		<rect x="21.26" y="9.56" width="1.81" height="3.11"/>
	</symbol>

	<symbol id="cards1" viewBox="0 0 40 40">
		<path d="M26.08,7.8H8.19A3.22,3.22,0,0,0,5,11v9.22a3.22,3.22,0,0,0,3.22,3.22H9V21.79H8.19a1.54,1.54,0,0,1-1.55-1.55V13h21v1.86H29.3V11A3.22,3.22,0,0,0,26.08,7.8ZM6.64,11.32V11A1.54,1.54,0,0,1,8.19,9.48H26.08A1.55,1.55,0,0,1,27.63,11v.29Z"/>
		<path d="M31.75,32.2H13.86A3.22,3.22,0,0,1,10.64,29V19.76a3.22,3.22,0,0,1,3.22-3.22H31.75A3.22,3.22,0,0,1,35,19.76V29A3.22,3.22,0,0,1,31.75,32.2Zm-17.89-14a1.54,1.54,0,0,0-1.55,1.55V29a1.55,1.55,0,0,0,1.55,1.55H31.75A1.56,1.56,0,0,0,33.3,29V19.76a1.55,1.55,0,0,0-1.55-1.55Z"/>
		<path d="M21.84,28.59H15.09a.84.84,0,0,1-.83-.84.83.83,0,0,1,.83-.83h6.75a.83.83,0,0,1,.83.83A.84.84,0,0,1,21.84,28.59Z"/>
		<path d="M27.35,25.32H15.1a.84.84,0,0,1-.84-.83.85.85,0,0,1,.84-.84H27.35a.85.85,0,0,1,.84.84A.84.84,0,0,1,27.35,25.32Z"/>
	</symbol>

	<symbol id="discount1" viewBox="0 0 40 40">
		<path d="M20.06,26.1a.7.7,0,0,1-.7-.71.72.72,0,0,1,.12-.4L26.92,14.2a.71.71,0,0,1,1.19.77l0,0L20.65,25.8A.71.71,0,0,1,20.06,26.1Z"/>
		<path d="M20.45,19.06A2.54,2.54,0,1,1,23,16.52h0A2.54,2.54,0,0,1,20.45,19.06Zm0-3.66a1.12,1.12,0,1,0,1.12,1.12A1.12,1.12,0,0,0,20.45,15.4Z"/>
		<path d="M27.1,26a2.54,2.54,0,1,1,2.54-2.53A2.54,2.54,0,0,1,27.1,26Zm0-3.65a1.12,1.12,0,0,0,0,2.24,1.12,1.12,0,1,0,0-2.24Z"/>
		<path d="M32.58,9.18H7.42a2.36,2.36,0,0,0-2.36,2.36V28.46a2.36,2.36,0,0,0,2.36,2.36H32.58a2.36,2.36,0,0,0,2.36-2.36V11.54A2.36,2.36,0,0,0,32.58,9.18Zm.71,19.28a.73.73,0,0,1-.71.71h-19V27.1H11.93v2.07H7.42a.73.73,0,0,1-.71-.71V11.54a.73.73,0,0,1,.71-.71h4.51v1.94h1.65V10.83h19a.73.73,0,0,1,.71.71Z"/>
		<rect x="11.93" y="14.47" width="1.65" height="2.51"/>
		<rect x="11.93" y="18.68" width="1.65" height="2.5"/>
		<rect x="11.93" y="22.89" width="1.65" height="2.51"/>
	</symbol>

	<symbol id="shop1" viewBox="0 0 40 40">
		<path d="M15.5,10.11a4.37,4.37,0,0,1,4.37-4.37h.27a4.37,4.37,0,0,1,4.36,4.37h0v.71h1.79v-.71A6.18,6.18,0,0,0,20.13,4h-.27a6.18,6.18,0,0,0-6.16,6.16v.71h1.8Z"/>
		<path d="M15.67,17.65a1,1,0,1,1-1-1,1,1,0,0,1,1,1Z"/>
		<path d="M26.4,17.65a1,1,0,0,1-2.08,0,1,1,0,0,1,2.08,0Z"/>
		<path d="M32.12,12.48H7.88L6.71,34.92H33.29Zm-1.71,1.8.73,14H8.86l.72-14ZM8.61,33.12l.15-3H31.23l.16,3Z"/>
	</symbol>

	<symbol id="support1" viewBox="0 0 40 40">
		<path d="M16.62,22.52a1,1,0,0,0,1-1.11,1.05,1.05,0,0,0-2.1.06A1.08,1.08,0,0,0,16.62,22.52Z"/>
		<path d="M24.82,21.47a1.12,1.12,0,1,0-1.19,1.05h.07A1.08,1.08,0,0,0,24.82,21.47Z"/>
		<path d="M34.7,28.47c-1.76-1.53-1.78-2.41-1.82-3.64,0-.15,0-.31,0-.47a9.19,9.19,0,0,1,.32-3c.06-.29.13-.6.21-1a.13.13,0,0,1,0-.06,15.34,15.34,0,0,0-.19-4.92.49.49,0,0,0-.06-.17C31,6.12,21.22,6.3,21.13,6.3h-.07a.52.52,0,0,0-.17,0c-.32,0-7.68-.1-11.79,4.48-2.16,2.4-3,5.62-2.51,9.56,0,0,0,0,0,.06.08.37.14.69.2,1a8.93,8.93,0,0,1,.33,3c0,.16,0,.32,0,.47,0,1.23-.05,2.11-1.81,3.64a.81.81,0,0,0-.15,1.05,3.58,3.58,0,0,0,3,1.53,5.56,5.56,0,0,0,2.72-.8.81.81,0,0,0,.31-1.1.82.82,0,0,0-1.11-.31h0c-1.56.88-2.55.6-3.08.26a5.3,5.3,0,0,0,1.73-4.22c0-.15,0-.29,0-.44A11,11,0,0,0,8.39,21c-.06-.27-.12-.57-.2-.92-.42-3.44.29-6.21,2.11-8.24,3.61-4,10.49-3.95,10.55-3.95a1.15,1.15,0,0,1,.32,0c.35,0,8.76-.09,10.51,8a13.43,13.43,0,0,1,.13,4.15c-.08.35-.14.65-.2.92a10.92,10.92,0,0,0-.36,3.42c0,.15,0,.29,0,.44A5.3,5.3,0,0,0,33,29.1c-.52.35-1.51.62-3.08-.26a.82.82,0,0,0-1.11.31.81.81,0,0,0,.31,1.1h0a5.56,5.56,0,0,0,2.72.8,3.6,3.6,0,0,0,3-1.53A.81.81,0,0,0,34.7,28.47Z"/>
		<path d="M30.39,22.32a3.92,3.92,0,0,0-.75-2.47h0a16.94,16.94,0,0,0-.48-3.32.78.78,0,0,0-.63-.58.51.51,0,0,0-.15-.07A14.26,14.26,0,0,1,23,12.8c-.54-.55-1-1-1.63-.9s-.8.64-1,1.25a7.17,7.17,0,0,1-8.16,4.65.81.81,0,0,0-.34,1.59,9.09,9.09,0,0,0,10-5.51l.05,0a15.5,15.5,0,0,0,5.85,3.42,15.68,15.68,0,0,1,.21,5.29,17.21,17.21,0,0,1-.84,3,7.18,7.18,0,0,1-5.2,1.78h0a2.25,2.25,0,0,0-1.78-.77c-1.15,0-2.08.69-2.08,1.56s.93,1.55,2.08,1.55A2.24,2.24,0,0,0,21.83,29h0a10.11,10.11,0,0,0,3.92-.7c-1.2,2-3,3.75-5.73,3.75a.25.25,0,0,1-.17,0c-6.21,0-7.45-9.32-7.46-9.42a.81.81,0,0,0-1.61.2c0,.44,1.43,10.85,9.06,10.85a.28.28,0,0,1,.18,0c4.8,0,7.27-4.12,8.46-7.27A7.9,7.9,0,0,0,30.39,22.32Z"/>
	</symbol>

	<symbol id="new1" viewBox="0 0 40 40">
		<path d="M20,35h0a.79.79,0,0,1-.64-.33L17,31.29,13.23,33a.8.8,0,0,1-1.05-.4.71.71,0,0,1-.06-.25l-.4-4.08-4.08-.39A.79.79,0,0,1,6.93,27,1,1,0,0,1,7,26.76L8.7,23,5.35,20.64a.8.8,0,0,1-.18-1.11.81.81,0,0,1,.18-.19L8.7,17,7,13.22a.79.79,0,0,1,.4-1.05.72.72,0,0,1,.25-.07l4.08-.39.4-4.09A.8.8,0,0,1,13,6.91a1.17,1.17,0,0,1,.25.07L17,8.69l2.39-3.35a.83.83,0,0,1,1.16-.13.8.8,0,0,1,.13.13L23,8.69,26.77,7a.8.8,0,0,1,1.12.64l.39,4.09,4.09.39a.8.8,0,0,1,.71.87.72.72,0,0,1-.07.25L31.3,17l3.35,2.39a.79.79,0,0,1,.18,1.1.81.81,0,0,1-.18.19L31.3,23,33,26.76a.8.8,0,0,1-.39,1,.77.77,0,0,1-.26.07l-4.08.39-.39,4.09a.81.81,0,0,1-.87.71.72.72,0,0,1-.25-.07L23,31.29l-2.39,3.35A.81.81,0,0,1,20,35Zm-2.76-5.46a.79.79,0,0,1,.64.33l2.11,3,2.12-3a.79.79,0,0,1,1-.26l3.31,1.51.35-3.63a.79.79,0,0,1,.72-.71l3.63-.35-1.52-3.32a.8.8,0,0,1,.26-1l3-2.12-3-2.12a.78.78,0,0,1-.26-1l1.51-3.32-3.63-.35a.78.78,0,0,1-.71-.71l-.35-3.63L23.09,10.4a.78.78,0,0,1-1-.26L20,7.17l-2.12,3a.78.78,0,0,1-1,.26L13.59,8.88l-.35,3.63a.81.81,0,0,1-.71.72l-3.63.35,1.51,3.31a.79.79,0,0,1-.26,1L7.18,20l3,2.12a.78.78,0,0,1,.26,1L8.89,26.4l3.63.35a.79.79,0,0,1,.72.71l.35,3.63,3.31-1.51A.8.8,0,0,1,17.24,29.51Z"/>
		<path d="M13.75,19.62h0l.13,3.6H12.44V16.77H14l1.17,3.61h0l-.14-3.61h1.43v6.46H14.93Z"/>
		<path d="M17.25,23.23V16.77h3.47v1.29H18.77v1.2h1.89v1.29H18.77v1.39h2.06v1.29Z"/>
		<path d="M25.85,21.3h0l.48-4.53h1.43L26.7,23.23H25l-.46-4.55h0L24,23.23H22.33l-1.08-6.46h1.46l.46,4.54,0,0,.61-4.52h1.46Z"/>
	</symbol>
</svg>
