<svg xmlns="http://www.w3.org/2000/svg" xmlns:xlink="http://www.w3.org/1999/xlink">

  <symbol id="search" viewBox="0 0 40 40">
    <path d="M32.32,28.74l-4.11-4.11a2.41,2.41,0,0,0-1.59-.69,10.77,10.77,0,1,0-2.57,2.66,2.42,2.42,0,0,0,.68,1.52l4.11,4.1a2.65,2.65,0,0,0,3.48,0,2.4,2.4,0,0,0,.08-3.4ZM17.75,25.38a7.4,7.4,0,1,1,7.4-7.4A7.4,7.4,0,0,1,17.75,25.38Z"/>
  </symbol>

  <symbol id="calendar" viewBox="0 0 40 40">
    <path d="M16.23,18.45h-1.5a.71.71,0,0,0-.75.66V20.7a.72.72,0,0,0,.67.75h1.58a.71.71,0,0,0,.75-.67V19.2a.7.7,0,0,0-.66-.75Z"/>
    <path d="M20.73,18.45h-1.5a.7.7,0,0,0-.75.66V20.7a.71.71,0,0,0,.66.75h1.59a.72.72,0,0,0,.75-.67V19.2a.71.71,0,0,0-.67-.75Z"/>
    <path d="M25.22,18.45H23.73a.69.69,0,0,0-.75.66.14.14,0,0,0,0,.09v1.5a.71.71,0,0,0,.66.75h1.58a.71.71,0,0,0,.75-.67.11.11,0,0,0,0-.08V19.2a.7.7,0,0,0-.66-.75Z"/>
    <path d="M16.23,22.94h-1.5a.72.72,0,0,0-.75.67v1.58a.71.71,0,0,0,.67.75h1.58a.7.7,0,0,0,.75-.66V23.69a.71.71,0,0,0-.66-.75Z"/>
    <path d="M20.73,22.94h-1.5a.71.71,0,0,0-.75.67v1.58a.71.71,0,0,0,.66.75h1.59a.71.71,0,0,0,.75-.66V23.69a.72.72,0,0,0-.67-.75Z"/>
    <path d="M25.22,22.94H23.73a.71.71,0,0,0-.75.67.11.11,0,0,0,0,.08v1.5a.7.7,0,0,0,.66.75h1.58a.7.7,0,0,0,.75-.66.14.14,0,0,0,0-.09v-1.5a.71.71,0,0,0-.66-.75Z"/>
    <path d="M27.47,9.46H26V8.71A.7.7,0,0,0,25.31,8H23.72a.71.71,0,0,0-.75.66v.84H17V8.71A.71.71,0,0,0,16.32,8H14.73a.71.71,0,0,0-.75.66v.84H12.49A4.41,4.41,0,0,0,8,13.79V27.44a4.41,4.41,0,0,0,4.33,4.5H27.47A4.43,4.43,0,0,0,32,27.6V14a4.43,4.43,0,0,0-4.33-4.5Zm1.5,18a1.63,1.63,0,0,1-1.5,1.5h-15a1.61,1.61,0,0,1-1.5-1.5V14a1.61,1.61,0,0,1,1.5-1.5H14v.75a.71.71,0,0,0,.67.75.11.11,0,0,0,.08,0h1.5a.7.7,0,0,0,.75-.66v-.84h6v.75a.7.7,0,0,0,.66.75.14.14,0,0,0,.09,0h1.49a.7.7,0,0,0,.75-.66.14.14,0,0,0,0-.09v-.75h1.5A1.61,1.61,0,0,1,29,14Z"/>
  </symbol>

  <symbol id="down" viewBox="0 0 40 40">
    <path d="M11,16l9,9,9-9Z"/>
  </symbol>

  <symbol id="up" viewBox="0 0 40 40">
    <path d="M29,25.91l-9-9-9,9Z"/>
  </symbol>

  <symbol id="right" viewBox="0 0 40 40">
    <path d="M7.51,30.49,18,20,7.51,9.51Z"/>
  </symbol>

  <symbol id="left" viewBox="0 0 40 40">
    <path d="M32.49,30.49,22,20,32.49,9.51Z"/>
  </symbol>
</svg>
