<svg xmlns="http://www.w3.org/2000/svg" xmlns:xlink="http://www.w3.org/1999/xlink">

	<symbol id="search" viewBox="0 0 40 40">
		<path d="M32.32,28.74l-4.11-4.11a2.41,2.41,0,0,0-1.59-.69,10.77,10.77,0,1,0-2.57,2.66,2.42,2.42,0,0,0,.68,1.52l4.11,4.1a2.65,2.65,0,0,0,3.48,0,2.4,2.4,0,0,0,.08-3.4ZM17.75,25.38a7.4,7.4,0,1,1,7.4-7.4A7.4,7.4,0,0,1,17.75,25.38Z"/>
	</symbol>

	<symbol id="calendar" viewBox="0 0 40 40">
		<path d="M16.23,18.45h-1.5a.71.71,0,0,0-.75.66V20.7a.72.72,0,0,0,.67.75h1.58a.71.71,0,0,0,.75-.67V19.2a.7.7,0,0,0-.66-.75Z"/>
		<path d="M20.73,18.45h-1.5a.7.7,0,0,0-.75.66V20.7a.71.71,0,0,0,.66.75h1.59a.72.72,0,0,0,.75-.67V19.2a.71.71,0,0,0-.67-.75Z"/>
		<path d="M25.22,18.45H23.73a.69.69,0,0,0-.75.66.14.14,0,0,0,0,.09v1.5a.71.71,0,0,0,.66.75h1.58a.71.71,0,0,0,.75-.67.11.11,0,0,0,0-.08V19.2a.7.7,0,0,0-.66-.75Z"/>
		<path d="M16.23,22.94h-1.5a.72.72,0,0,0-.75.67v1.58a.71.71,0,0,0,.67.75h1.58a.7.7,0,0,0,.75-.66V23.69a.71.71,0,0,0-.66-.75Z"/>
		<path d="M20.73,22.94h-1.5a.71.71,0,0,0-.75.67v1.58a.71.71,0,0,0,.66.75h1.59a.71.71,0,0,0,.75-.66V23.69a.72.72,0,0,0-.67-.75Z"/>
		<path d="M25.22,22.94H23.73a.71.71,0,0,0-.75.67.11.11,0,0,0,0,.08v1.5a.7.7,0,0,0,.66.75h1.58a.7.7,0,0,0,.75-.66.14.14,0,0,0,0-.09v-1.5a.71.71,0,0,0-.66-.75Z"/>
		<path d="M27.47,9.46H26V8.71A.7.7,0,0,0,25.31,8H23.72a.71.71,0,0,0-.75.66v.84H17V8.71A.71.71,0,0,0,16.32,8H14.73a.71.71,0,0,0-.75.66v.84H12.49A4.41,4.41,0,0,0,8,13.79V27.44a4.41,4.41,0,0,0,4.33,4.5H27.47A4.43,4.43,0,0,0,32,27.6V14a4.43,4.43,0,0,0-4.33-4.5Zm1.5,18a1.63,1.63,0,0,1-1.5,1.5h-15a1.61,1.61,0,0,1-1.5-1.5V14a1.61,1.61,0,0,1,1.5-1.5H14v.75a.71.71,0,0,0,.67.75.11.11,0,0,0,.08,0h1.5a.7.7,0,0,0,.75-.66v-.84h6v.75a.7.7,0,0,0,.66.75.14.14,0,0,0,.09,0h1.49a.7.7,0,0,0,.75-.66.14.14,0,0,0,0-.09v-.75h1.5A1.61,1.61,0,0,1,29,14Z"/>
	</symbol>

	<symbol id="down" viewBox="0 0 40 40">
		<path d="M11,16l9,9,9-9Z"/>
	</symbol>

	<symbol id="up" viewBox="0 0 40 40">
		<path d="M29,25.91l-9-9-9,9Z"/>
	</symbol>

	<symbol id="right" viewBox="0 0 40 40">
		<path d="M7.51,30.49,18,20,7.51,9.51Z"/>
	</symbol>

	<symbol id="left" viewBox="0 0 40 40">
		<path d="M32.49,30.49,22,20,32.49,9.51Z"/>
	</symbol>

	<symbol id="user" viewBox="0 0 40 40">
		<path d="M9.68,33.34a1.11,1.11,0,0,1-2.22,0,6.25,6.25,0,0,1,2-4.64,9.15,9.15,0,0,1,5.14-2.31,1.13,1.13,0,0,0,.67-.29.78.78,0,0,0,.19-.36,7.11,7.11,0,0,1-1.92-3,7.83,7.83,0,0,0-.47-1h0a5.87,5.87,0,0,1-1.46-2.15,3.25,3.25,0,0,1,.09-2.82A8.5,8.5,0,0,1,11.21,14a10.67,10.67,0,0,1,.55-3.55l.05-.09a6.68,6.68,0,0,1,2.61-3.5A8.27,8.27,0,0,1,19,5.57a12.74,12.74,0,0,1,2.39.14,3.74,3.74,0,0,1,2.48,1.35,3.56,3.56,0,0,1,3,1.49,8.74,8.74,0,0,1,1.83,3.77,7.33,7.33,0,0,1,0,2.29,11.86,11.86,0,0,1-.41,1.95,3.25,3.25,0,0,1,.18,2.94,6,6,0,0,1-1.47,2.14l0,0v0h0a4.29,4.29,0,0,0-.49,1,6.88,6.88,0,0,1-1.86,3,.77.77,0,0,0,.21.41,1.13,1.13,0,0,0,.67.29,9.12,9.12,0,0,1,5.13,2.31,6.27,6.27,0,0,1,2,4.65,1.11,1.11,0,0,1-2.21,0h0a4.07,4.07,0,0,0-1.29-3,6.65,6.65,0,0,0-3.8-1.7,3.39,3.39,0,0,1-2-.94c-.59-.59-1.45-2.79-.33-3.49a4.51,4.51,0,0,0,1.51-2.31A4.76,4.76,0,0,1,25.43,20v0a3.6,3.6,0,0,0,.89-1.29,1,1,0,0,0-.08-1.1h0A1.44,1.44,0,0,1,26,16.3a11.24,11.24,0,0,0,.45-2,5.57,5.57,0,0,0,0-1.68A6,6,0,0,0,25.12,10c-.37-.45-.78-.77-1.13-.71a1.93,1.93,0,0,1-1.11-.16,2,2,0,0,1-.77-.66L22,8.37A1.7,1.7,0,0,0,21,7.87,9.8,9.8,0,0,0,19,7.79a5.91,5.91,0,0,0-3.35.9,4.56,4.56,0,0,0-1.76,2.38l0,.09A8.53,8.53,0,0,0,13.42,14h0a6.59,6.59,0,0,0,.43,2.33A1,1,0,0,1,14,17c-.12.72-.7.75-.36,1.7A4,4,0,0,0,14.49,20l0,0h0a5,5,0,0,1,1,1.83A4.82,4.82,0,0,0,17.1,24.2a1.06,1.06,0,0,1,.58,1,3.25,3.25,0,0,1-.87,2.48,3.31,3.31,0,0,1-2.06.94A6.58,6.58,0,0,0,11,30.3a4.06,4.06,0,0,0-1.29,3Z"/>
	</symbol>

	<symbol id="settings" viewBox="0 0 40 40">
		<path d="M20,14.8a5.19,5.19,0,1,1-3.68,1.52A5.19,5.19,0,0,1,20,14.8Zm3.11-6.36h0A12.32,12.32,0,0,1,26,9.62L27.2,8.4a1.08,1.08,0,0,1,1.54,0h0l2.82,2.83a1.09,1.09,0,0,1,0,1.55L30.36,14a13.84,13.84,0,0,1,.67,1.4,12.77,12.77,0,0,1,.51,1.47h1.73A1.12,1.12,0,0,1,34.39,18v4a1.11,1.11,0,0,1-1.11,1.1H31.54A12.93,12.93,0,0,1,31,24.58l0,0A14.08,14.08,0,0,1,30.35,26l1.22,1.24a1.09,1.09,0,0,1,0,1.55l-2.83,2.83a1.08,1.08,0,0,1-1.54,0L26,30.35a10.76,10.76,0,0,1-1.4.7c-.47.19-.95.36-1.46.51v1.73A1.13,1.13,0,0,1,22,34.41H18a1.12,1.12,0,0,1-1.1-1.12h0V31.56a15,15,0,0,1-1.47-.51,10,10,0,0,1-1.39-.7l-1.25,1.24a1.1,1.1,0,0,1-1.56,0h0L8.38,28.76a1.09,1.09,0,0,1,0-1.55L9.62,26a9,9,0,0,1-.7-1.39,11.2,11.2,0,0,1-.5-1.48H6.68A1.11,1.11,0,0,1,5.57,22V18a1.11,1.11,0,0,1,1.11-1.1H8.42a11.2,11.2,0,0,1,.5-1.48A10,10,0,0,1,9.62,14L8.38,12.78a1.1,1.1,0,0,1,0-1.56L11.2,8.4a1.12,1.12,0,0,1,1.57,0L14,9.62a15,15,0,0,1,1.4-.68,12.25,12.25,0,0,1,1.48-.5V6.7A1.12,1.12,0,0,1,18,5.58h4A1.13,1.13,0,0,1,23.08,6.7V8.44ZM23.71,11h0a9.06,9.06,0,0,0-1.84-.55,1.12,1.12,0,0,1-1-1.11V7.81H19.08V9.32a1.13,1.13,0,0,1-.91,1.1,8.15,8.15,0,0,0-1.92.57,9.1,9.1,0,0,0-1.76,1h0a1.11,1.11,0,0,1-1.41-.14L12,10.74,10.72,12l1,1.06a1.1,1.1,0,0,1,.16,1.43,9.93,9.93,0,0,0-1,1.79,9.8,9.8,0,0,0-.57,1.84,1.14,1.14,0,0,1-1.11,1H7.78v1.77H9.29a1.12,1.12,0,0,1,1.1.91A9.33,9.33,0,0,0,11,23.73a9.18,9.18,0,0,0,1,1.77v0h0a1.09,1.09,0,0,1-.14,1.39L10.72,28,12,29.24l1-1a1.12,1.12,0,0,1,1.44-.15,9,9,0,0,0,1.78,1,9.09,9.09,0,0,0,1.84.56,1.09,1.09,0,0,1,1,1.1v1.52h1.79V30.67a1.11,1.11,0,0,1,.91-1.09A8,8,0,0,0,23.7,29a9.84,9.84,0,0,0,1.78-1h0a1.09,1.09,0,0,1,1.39.15l1.07,1L29.24,28l-1.06-1.06A1.1,1.1,0,0,1,28,25.51,9,9,0,0,0,29,23.76l0,0a8.56,8.56,0,0,0,.55-1.85,1.13,1.13,0,0,1,1.1-1h1.53V19.12H30.64a1.12,1.12,0,0,1-1.08-.93A8.65,8.65,0,0,0,29,16.27a10.1,10.1,0,0,0-1-1.77v0a1.09,1.09,0,0,1,.14-1.39L29.24,12,28,10.73l-1.06,1.06A1.1,1.1,0,0,1,25.5,12a10,10,0,0,0-1.79-1Zm-1,6.28h0A3.79,3.79,0,0,0,20,16.13a3.87,3.87,0,1,0,2.73,1.13Z"/>
	</symbol>

	<symbol id="notice" viewBox="0 0 40 40">
		<path d="M27.87,23.76c-.77,1-1.6,2.17-2.38,3.44h0A4.61,4.61,0,0,0,25,29.48v.08a4.73,4.73,0,0,1-1.3,3.66,1.12,1.12,0,0,1-1.58,0l0,0,0,0-.76-.75a3.71,3.71,0,0,1-6.05-2.87v0a3.58,3.58,0,0,1,.83-2.33l-9.38-9.4a1.12,1.12,0,0,1,0-1.59h0l0,0a4.35,4.35,0,0,1,4-1.19A3.58,3.58,0,0,0,13,14.68c1.25-.76,2.38-1.59,3.43-2.35l.37-.28c.61-.43,1.19-.85,1.75-1.22a8.63,8.63,0,0,1,6.74-1.71,6.15,6.15,0,0,1,1.77.64V9.62a3.27,3.27,0,1,1,5.59,2.3h0a3.35,3.35,0,0,1-2.32,1h0a6.73,6.73,0,0,1,.76,2c.76,3.49-1.27,6.21-3.2,8.86ZM32.23,9.62h0A1.91,1.91,0,0,0,29,8.28a1.91,1.91,0,1,0,3.25,1.34ZM26,22.42h0c1.5-2.05,3.42-4.32,2.84-7a5.45,5.45,0,0,0-1.45-2.62,5.24,5.24,0,0,0-2.61-1.42,6.37,6.37,0,0,0-5,1.37c-.55.36-1.11.76-1.68,1.18l-.36.26c-1.08.79-2.26,1.66-3.58,2.47a5.35,5.35,0,0,1-3.59.65,4.09,4.09,0,0,0-1.21,0L22.67,30.56a7.6,7.6,0,0,0,.09-1.07V29.4A6.2,6.2,0,0,1,23.57,26c.82-1.34,1.67-2.51,2.47-3.6Zm-6.31,8.39h0l-2-2a1.32,1.32,0,0,0-.17.7,1.52,1.52,0,0,0,.41,1A1.55,1.55,0,0,0,19,31a1.43,1.43,0,0,0,.7-.18Z"/>
	</symbol>

	<symbol id="chat" viewBox="0 0 40 40">
		<path d="M14.63,17.46a2.12,2.12,0,0,1,2.13,2.12h0a2,2,0,0,1-.63,1.49,2.09,2.09,0,0,1-2.95.05l0-.05a2,2,0,0,1-.62-1.49,2.1,2.1,0,0,1,2.1-2.12ZM20,6.93h0a15.64,15.64,0,0,1,10.2,3.65,11.54,11.54,0,0,1,0,18A15.53,15.53,0,0,1,20,32.22a16.26,16.26,0,0,1-3.48-.37A14.08,14.08,0,0,1,13.76,31l-3.49,1.88a2,2,0,0,1-1.08.24h0a2,2,0,0,1-1-.39,2.15,2.15,0,0,1-.65-.9h0a1.93,1.93,0,0,1-.08-1.09l.85-3.69a11.87,11.87,0,0,1-2-3.25,11.11,11.11,0,0,1-.84-4.22,11.83,11.83,0,0,1,4.33-9A15.61,15.61,0,0,1,20,6.93Zm8.75,5.34h0a13.91,13.91,0,0,0-17.52,0A9.75,9.75,0,0,0,7.7,19.58,9,9,0,0,0,8.37,23a9.83,9.83,0,0,0,1.9,3A1.14,1.14,0,0,1,10.59,27l-.82,3.63,3.42-1.86a1.12,1.12,0,0,1,1,0,12.69,12.69,0,0,0,2.83.93A13.86,13.86,0,0,0,20,30a13.38,13.38,0,0,0,8.75-3.11,9.31,9.31,0,0,0,1.5-13.1,8.93,8.93,0,0,0-1.5-1.51ZM15.19,19h0a.76.76,0,0,0-1.08,0l0,0a.82.82,0,0,0-.22.55.77.77,0,0,0,.77.78.8.8,0,0,0,.56-.24.68.68,0,0,0,.22-.54A.7.7,0,0,0,15.19,19ZM20,17.46h0a2.08,2.08,0,0,1,1.49.62,2.12,2.12,0,0,1,.62,1.5,2.08,2.08,0,0,1-.62,1.49,2.08,2.08,0,0,1-3,0,2.08,2.08,0,0,1-.62-1.49,2.16,2.16,0,0,1,.62-1.5A2.1,2.1,0,0,1,20,17.46ZM20.55,19h0a.75.75,0,0,0-1.06,0l0,0a.68.68,0,0,0-.23.55.66.66,0,0,0,.23.54.74.74,0,0,0,1.05,0l0,0a.73.73,0,0,0,.24-.54A.76.76,0,0,0,20.55,19Zm4.82-1.57h0a2.1,2.1,0,0,1,2.12,2.1v0a2.07,2.07,0,0,1-.61,1.49,2.1,2.1,0,0,1-3,0l0,0a2.07,2.07,0,0,1-.61-1.49,2.1,2.1,0,0,1,2.09-2.12ZM25.92,19h0a.76.76,0,0,0-1.08,0l0,0a.78.78,0,0,0-.22.55.76.76,0,0,0,.22.54.77.77,0,0,0,1.09,0l0,0a.76.76,0,0,0,0-1.09Z"/>
	</symbol>

	<symbol id="label" viewBox="0 0 40 40">
		<path d="M30.81,8.22H19.54a1,1,0,0,0-.71.3L6.53,20.84l0,0a1,1,0,0,0,0,1.38h0L17.74,33.48l0,0a1,1,0,0,0,1.38,0h0L31.48,21.17a1,1,0,0,0,.3-.71V9.2a1,1,0,0,0-1-1h0Zm-1,11.83h0L18.45,31.41,8.59,21.56,20,10.18h9.85V20ZM25.6,17.36h0a3,3,0,1,0-2.94-2.95A2.95,2.95,0,0,0,25.6,17.36Zm0-4.71h0a1.75,1.75,0,0,1,1.76,1.75h0a1.77,1.77,0,1,1-1.77-1.76Z"/>
	</symbol>

	<symbol id="download" viewBox="0 0 40 40">
		<path d="M24.14,27.88,20.5,30.8v-9a.79.79,0,0,0-1.57,0v9l-3.64-2.92a.78.78,0,0,0-1,1.21l4.21,3.37.1.07a2.17,2.17,0,0,0,.87.24.85.85,0,0,0,.23,0,.93.93,0,0,0,.23,0,2.17,2.17,0,0,0,.86-.24l4.32-3.45a.78.78,0,0,0-1-1.21Z"/>
		<path d="M27.61,11.32h0a7.47,7.47,0,0,0-2.1.31A8.12,8.12,0,0,0,18.3,7.18h0a8,8,0,0,0-8,7.34A5.77,5.77,0,0,0,10.81,26h4.11a.78.78,0,0,0,0-1.56h-4.1a4.21,4.21,0,0,1,0-8.42H11a4.2,4.2,0,0,1,3.33,1.64.78.78,0,1,0,1.23-.95,5.69,5.69,0,0,0-3.75-2.19,6.49,6.49,0,0,1,6.43-5.83h0a6.54,6.54,0,0,1,6.05,4.16.78.78,0,0,0,1,.45h0a5.6,5.6,0,0,1,2.21-.45h0a5.8,5.8,0,0,1,0,11.59H24.71a.78.78,0,0,0,0,1.56h2.92a7.36,7.36,0,1,0,0-14.71Z"/>
	</symbol>

	<symbol id="cancel" viewBox="0 0 40 40">
		<path d="M25.26,10.07,20,15.3l-5.11-5.11a.92.92,0,0,0-1.28-.12l-3.48,3.49a.91.91,0,0,0,.11,1.27l5.11,5.11-5.22,5.23a.91.91,0,0,0,.11,1.28l3.49,3.49c.35.34.7.23,1-.12L20,24.59l5.34,5.35c.35.34.7.23,1.05-.12l3.49-3.49c.34-.34.46-.69.11-1L24.68,20l5.23-5.23c.34-.35.46-.7.11-1.05l-3.48-3.48A.93.93,0,0,0,25.26,10.07Z"/>
	</symbol>

	<symbol id="sync" viewBox="0 0 40 40">
		<path d="M34.8,20.88l-3.36-3.54a1.74,1.74,0,0,0-2.47,0l0,0-3.36,3.55a.77.77,0,0,0,1.12,1.05l2.72-2.87v1.09a9.5,9.5,0,0,1-15.61,7.26.77.77,0,1,0-1.06,1.12l.07.06A11,11,0,0,0,31,20.16V19.08l2.71,2.85a.77.77,0,0,0,1.12-1.05Z"/>
		<path d="M14.4,18.21a.77.77,0,0,0-1.09,0l-2.72,2.87V19.84A9.5,9.5,0,0,1,26.2,12.58a.77.77,0,0,0,1.09,0,.76.76,0,0,0,0-1.09l-.06-.06A11,11,0,0,0,9.05,19.84v1.25L6.34,18.24a.76.76,0,0,0-1.08-.1.76.76,0,0,0-.1,1.08l.06.07,3.36,3.54a1.71,1.71,0,0,0,2.41.08l.08-.08,3.36-3.54A.78.78,0,0,0,14.4,18.21Z"/>
	</symbol>

	<symbol id="shuffle" viewBox="0 0 40 40">
		<path d="M16.88,24.85l.92-1.48a.75.75,0,0,0-.24-1,.76.76,0,0,0-1,.24l-.91,1.48c-1.67,2.69-4,4.23-6.53,4.23H5.73a.76.76,0,0,0,0,1.51H9.09C12.1,29.79,14.94,28,16.88,24.85Z"/>
		<path d="M34.75,10.43,31.12,6.79a.75.75,0,0,0-1.06,0,.74.74,0,0,0,0,1.06l2.36,2.36H28.94c-3,0-5.86,1.8-7.8,4.94l-.56.91a.75.75,0,0,0,.24,1,.7.7,0,0,0,.39.11.77.77,0,0,0,.64-.35l.56-.91c1.67-2.69,4-4.23,6.53-4.23h3.47l-2.36,2.36a.75.75,0,0,0,0,1.06.76.76,0,0,0,1.07,0l3.64-3.64A.75.75,0,0,0,34.75,10.43Zm-1.6.54h0Z"/>
		<path d="M30.05,33.21a.76.76,0,0,0,1.07,0l3.64-3.64a.75.75,0,0,0,0-1.06l-3.64-3.64a.75.75,0,0,0-1.06,0,.74.74,0,0,0,0,1.06l2.36,2.36H29.05c-2.48,0-4.86-1.54-6.53-4.23L17,15.15c-1.94-3.14-4.79-4.94-7.8-4.94H5.73a.76.76,0,0,0,0,1.51H9.2c2.48,0,4.86,1.54,6.52,4.22l5.52,8.92C23.18,28,26,29.8,29,29.8h3.37l-2.36,2.36A.74.74,0,0,0,30.05,33.21ZM33.15,29h0Z"/>
	</symbol>

	<symbol id="qr-code" viewBox="0 0 40 40">
		<path d="M8,16h8V8H8Zm2-6h4v4H10Z"/>
		<path d="M8,31.92h8v-8H8Zm2-6h4v4H10Z"/>
		<path d="M21.33,10.64V8H18.67V13.3h2.66Z"/>
		<path d="M29.31,21.28v2.66H32V18.62H29.31Z"/>
		<path d="M26.65,26.6v2.66h2.66v2.66H32V26.6Z"/>
		<path d="M21.33,18.62V16H18.67v5.32H24V18.62Z"/>
		<path d="M24,8v8h8V8Zm6,6H26V10h4Z"/>
		<rect x="8.03" y="18.62" width="2.66" height="2.66"/>
		<rect x="13.35" y="18.62" width="2.66" height="2.66"/>
		<rect x="18.67" y="23.94" width="2.66" height="2.66"/>
		<rect x="18.67" y="29.26" width="5.32" height="2.66"/>
		<rect x="23.99" y="21.28" width="2.66" height="2.66"/>
	</symbol>

	<symbol id="camera" viewBox="0 0 40 40">
		<path d="M29.21,12.09H27.1l-1.32-1.32a4.84,4.84,0,0,0-3.16-1.32H17.34a4.87,4.87,0,0,0-3.17,1.32l-1.31,1.32H10.74A3.88,3.88,0,0,0,6.79,15.9V26.6a3.88,3.88,0,0,0,3.81,3.95H29.21a3.89,3.89,0,0,0,4-3.81V16a3.88,3.88,0,0,0-3.81-3.95ZM20,25.28a4.67,4.67,0,0,1-4.62-4.62A4.62,4.62,0,1,1,20,25.28Zm7.91-6.2a1.72,1.72,0,1,1,1.72-1.72A1.76,1.76,0,0,1,27.89,19.08Z"/>
	</symbol>

	<symbol id="plus" viewBox="0 0 40 40">
		<path d="M30.71,16.66H23.32V9.43a.91.91,0,0,0-.82-1H17.57a.91.91,0,0,0-.82,1v7.23H9.35a.92.92,0,0,0-.82,1v4.92c0,.5.33.66.82.66h7.4v7.56c0,.49.32.66.82.66H22.5c.49,0,.82-.17.82-.66V23.23h7.39c.49,0,.82-.16.82-.66V17.65A.92.92,0,0,0,30.71,16.66Z"/>
	</symbol>

	<symbol id="minus" viewBox="0 0 40 40">
		<path d="M30.66,16.71H9.3a.92.92,0,0,0-.82,1v4.93c0,.49.33.66.82.66H30.66c.49,0,.82-.17.82-.66V17.7A.93.93,0,0,0,30.66,16.71Z"/>
	</symbol>

	<symbol id="next" viewBox="0 0 40 40">
		<polygon points="15.11 32.61 12.28 29.79 22.07 20 12.28 10.21 15.11 7.39 27.72 20 15.11 32.61"/>
	</symbol>

	<symbol id="prev" viewBox="0 0 40 40">
		<polygon points="24.87 32.61 27.7 29.79 17.91 20 27.7 10.21 24.87 7.39 12.26 20 24.87 32.61"/>
	</symbol>

	<symbol id="blocks" viewBox="0 0 40 40">
		<rect x="9.09" y="9.09" width="9.55" height="9.55" rx="1.36"/>
		<rect x="21.36" y="9.09" width="9.55" height="9.55" rx="1.36"/>
		<rect x="9.09" y="21.36" width="9.55" height="9.55" rx="1.36"/>
		<rect x="21.36" y="21.36" width="9.55" height="9.55" rx="1.36"/>
	</symbol>

	<symbol id="graph" viewBox="0 0 40 40">
		<rect x="9.09" y="21.36" width="5.46" height="9.55" rx="1.36"/>
		<rect x="17.27" y="15.91" width="5.46" height="15" rx="1.36"/>
		<rect x="25.46" y="9.09" width="5.46" height="21.82" rx="1.36"/>
	</symbol>

	<symbol id="zoom-in" viewBox="0 0 40 40">
		<path d="M28.22,26.81l4.87,4.87a1.12,1.12,0,0,1-1.57,1.61v0l-4.87-4.85a12.41,12.41,0,0,1-3.15,1.88,12.2,12.2,0,0,1-9.38,0h0a12.12,12.12,0,0,1-4-2.65h0a11.92,11.92,0,0,1-2.67-4l0-.08A12.16,12.16,0,0,1,6.53,19,12.35,12.35,0,0,1,18.81,6.7a12.1,12.1,0,0,1,4.67.94h0a12.55,12.55,0,0,1,4,2.67l.05,0a12.65,12.65,0,0,1,2.62,3.92v.07a12.12,12.12,0,0,1-1.93,12.46ZM23.41,18.3H19.47V14.37a.67.67,0,1,0-1.34,0h0V18.3H14.19a.68.68,0,0,0-.68.66h0a.67.67,0,0,0,.68.68h3.94v3.93a.66.66,0,0,0,.66.67.67.67,0,0,0,.68-.67h0V19.65h3.94a.68.68,0,0,0,0-1.35Zm-.79-8.59h0A10.2,10.2,0,0,0,18.8,9,10,10,0,0,0,8.78,19a9.91,9.91,0,0,0,.73,3.73l0,.06a10.13,10.13,0,0,0,2.19,3.25h0A10,10,0,0,0,28,22.84v0a9.92,9.92,0,0,0,0-7.59l0-.08A9.56,9.56,0,0,0,25.93,12l-.05-.07a10.67,10.67,0,0,0-3.25-2.18Z"/>
	</symbol>

	<symbol id="zoom-out" viewBox="0 0 40 40">
		<path d="M28.25,26.82l4.84,4.87a1.11,1.11,0,0,1,0,1.58,1.1,1.1,0,0,1-1.57,0l-4.88-4.85a12.74,12.74,0,0,1-3.15,1.89,12.32,12.32,0,0,1-9.39,0,12.62,12.62,0,0,1-4-2.66h0a12.75,12.75,0,0,1-2.66-4l0-.08A12,12,0,0,1,6.53,19,12.35,12.35,0,0,1,18.81,6.7a12.2,12.2,0,0,1,4.69.94h0a12.54,12.54,0,0,1,4,2.67l0,0a12.25,12.25,0,0,1,2.62,3.93v.06A12.06,12.06,0,0,1,31.08,19a12.42,12.42,0,0,1-.93,4.7,12.77,12.77,0,0,1-1.9,3.15Zm-4.83-8.51H14.21a.66.66,0,0,0-.68.64v0a.68.68,0,0,0,.67.68h9.22a.68.68,0,0,0,.67-.68.66.66,0,0,0-.66-.67Zm-.79-8.6h0A10.2,10.2,0,0,0,18.81,9,10.05,10.05,0,0,0,8.78,19a10.15,10.15,0,0,0,.73,3.73l0,.06a10.07,10.07,0,0,0,2.19,3.25h0A9.93,9.93,0,0,0,15,28.26a10.3,10.3,0,0,0,3.84.75,10,10,0,0,0,9.26-6.19A10.1,10.1,0,0,0,28.82,19a9.72,9.72,0,0,0-.73-3.76l0-.08A10.3,10.3,0,0,0,26,12l-.05-.06a10.45,10.45,0,0,0-3.26-2.19Z"/>
	</symbol>

	<symbol id="diamond" viewBox="0 0 40 40">
		<path d="M2.35,15.23,7.47,6.65A1.4,1.4,0,0,1,8.64,6H31.36a1.33,1.33,0,0,1,1.23.77l5.12,8.56A1.4,1.4,0,0,1,37.49,17h0L21,33.53a1.43,1.43,0,0,1-1.95,0l0,0L2.51,17a1.37,1.37,0,0,1-.15-1.76Zm3.22,0h6.9L9,9.49l-3.41,5.7ZM31,9.49h0l-3.49,5.7h6.9L31,9.49Zm2.73,7.34H26.64L22.53,28.06,33.76,16.83ZM17.48,28.06h0L13.35,16.83H6.25L17.48,28.06ZM29.56,8.73H22L26,14.53l3.53-5.8ZM18,8.73H10.45L14,14.53,18,8.73Zm-2.52,6.46h9L20,8.79Zm9.37,1.64H15.12L20,30.16Z"/>
	</symbol>

	<symbol id="google-play" viewBox="0 0 40 40">
		<path d="M31.08,17.62a3.26,3.26,0,0,0-.54-.51L30.35,17l-2.41-1.35-.15-.07-15.1-9h0a2.88,2.88,0,0,0-1.54-.45h0a2.51,2.51,0,0,0-.82.13,3.39,3.39,0,0,0-2.3,3V30.8a3,3,0,0,0,1.6,3,2.62,2.62,0,0,0,1.13.25,4.17,4.17,0,0,0,2-.6l15.16-9,0,0L30.42,23l.22-.15A3.71,3.71,0,0,0,31.08,17.62ZM11.37,31.2a1.51,1.51,0,0,1-.64.21,1.28,1.28,0,0,1-.11-.61l12.76-9.71,0,0,2.12,1.66L11.38,31.19Zm0-22.42,14.19,8.47-1.85,1.42-.3.23L10.7,9a1,1,0,0,1,.42-.34s.16.06.21.08ZM27.17,21.83,24.81,20l2.35-1.81,1.85,1a1.12,1.12,0,0,1,0,1.53ZM10.62,11.17,22,20,10.62,28.62Z"/>
	</symbol>

	<symbol id="expense" viewBox="0 0 40 40">
		<path d="M13.32,30.94a9.44,9.44,0,0,1-3.87-3.57.6.6,0,0,0-.82-.21.58.58,0,0,0-.22.81v0a10.56,10.56,0,0,0,4.37,4,.6.6,0,1,0,.53-1.07Z"/>
		<path d="M17.61,27.77a2.39,2.39,0,0,1-2.39-2.4H14a3.59,3.59,0,0,0,3,3.54v1.25h1.2V28.91a3.59,3.59,0,0,0-.6-7.12A2.4,2.4,0,1,1,20,19.39h1.2a3.59,3.59,0,0,0-3-3.53V14.61H17v1.25a3.59,3.59,0,0,0,.6,7.12,2.4,2.4,0,0,1,0,4.79Z"/>
		<path d="M28.75,9.38a.6.6,0,1,0-.76.92A12.86,12.86,0,0,1,29.72,12a.59.59,0,0,0,.84.08.6.6,0,0,0,.08-.84A14.06,14.06,0,0,0,28.75,9.38Z"/>
		<path d="M10,14.76A10.82,10.82,0,0,0,7.26,25.35a.61.61,0,0,0,.74.41A.6.6,0,0,0,8.42,25a9.56,9.56,0,0,1,16-9.4,8.42,8.42,0,0,1,.64.7,9.52,9.52,0,0,1-.31,12.49l0,0h0l0,0c-.09.09-.17.19-.27.28a9.58,9.58,0,0,1-8.62,2.62.59.59,0,0,0-.7.47.6.6,0,0,0,.47.7A10.78,10.78,0,0,0,25.22,30l.27-.28,0,0A10.76,10.76,0,0,0,10,14.76Z"/>
		<path d="M22.4,3.84A13.78,13.78,0,0,0,11.53,9.15a13.4,13.4,0,0,0-2.38,2.38A13.76,13.76,0,1,0,28.46,30.84a13.57,13.57,0,0,0,2.39-2.4A13.75,13.75,0,0,0,22.4,3.84Zm6.08,24.85A12.57,12.57,0,1,1,9.94,12.43a15.45,15.45,0,0,1,1.36-.92A12.57,12.57,0,0,1,28.48,28.69Zm3.43-15.58a.6.6,0,0,0-.81-.26.61.61,0,0,0-.25.81l0,0a12.54,12.54,0,0,1-.16,12.82A13.74,13.74,0,0,0,13.47,9.27,12.42,12.42,0,0,1,20,7.43a12.61,12.61,0,0,1,6.34,1.71.59.59,0,0,0,.8-.25.59.59,0,0,0-.2-.78,13.76,13.76,0,0,0-11.1-1.23A12.56,12.56,0,0,1,35,17.6a12.43,12.43,0,0,1-1.83,6.53A13.76,13.76,0,0,0,31.91,13.11Z"/>
	</symbol>

	<symbol id="income" viewBox="0 0 40 40">
		<path d="M20.06,5.88a4.39,4.39,0,1,0,4.39,4.39A4.4,4.4,0,0,0,20.06,5.88Zm0,7a2.64,2.64,0,1,1,2.63-2.64A2.64,2.64,0,0,1,20.06,12.91Z"/>
		<path d="M26.2,21.68a3.51,3.51,0,1,0-3.51-3.51A3.51,3.51,0,0,0,26.2,21.68Zm0-5.26a1.76,1.76,0,1,1-1.75,1.75A1.75,1.75,0,0,1,26.2,16.42Z"/>
		<path d="M30.83,24.62,26.38,27h-.33a2.58,2.58,0,0,0,.15-.88,2.63,2.63,0,0,0-2.63-2.63H20.32l-4.16-2.78a4.36,4.36,0,0,0-2.43-.73H10.14a2.66,2.66,0,0,0-2.49-1.76H5.9a.87.87,0,0,0-.88.88V31.34a.87.87,0,0,0,.88.87H7.65A2.63,2.63,0,0,0,10,30.83l5.45,2.68a4.41,4.41,0,0,0,2,.46h7.05a4.44,4.44,0,0,0,2.3-.65l7.2-4.44a2.63,2.63,0,0,0-3.1-4.26Zm-22.3,5a.87.87,0,0,1-.88.88H6.78V19.93h.87a.87.87,0,0,1,.88.87ZM32.9,27.45l-7.09,4.37a2.6,2.6,0,0,1-1.38.39h-7a2.65,2.65,0,0,1-1.18-.27h0L10.29,29V21.68h3.44a2.69,2.69,0,0,1,1.46.44l4.38,2.93a.93.93,0,0,0,.49.14h3.51a.88.88,0,0,1,0,1.76h-7a.88.88,0,1,0,0,1.75h10a.8.8,0,0,0,.41-.1C32,26,31.71,26.15,31.82,26.07a.88.88,0,0,1,1.08,1.38Z"/>
	</symbol>

	<symbol id="transaction" viewBox="0 0 40 40">
		<path d="M8.28,15.33H28.8L25,19.17a1.19,1.19,0,0,0,0,1.66,1.17,1.17,0,0,0,1.65,0L32.45,15a1.18,1.18,0,0,0,0-1.65L26.61,7.51a1.16,1.16,0,0,0-1.65,0,1.18,1.18,0,0,0,0,1.65L28.8,13H8.28a1.17,1.17,0,0,0,0,2.33Z"/>
		<path d="M31.62,24.67H11.1l3.84-3.84a1.17,1.17,0,0,0-1.65-1.66L7.46,25a1.16,1.16,0,0,0,0,1.65l5.83,5.83a1.16,1.16,0,0,0,.83.34,1.13,1.13,0,0,0,.82-.34,1.16,1.16,0,0,0,0-1.65L11.1,27H31.62a1.17,1.17,0,1,0,0-2.33Z"/>
	</symbol>

	<symbol id="debt" viewBox="0 0 40 40">
		<path d="M35.55,14.22h0V12.93a3.24,3.24,0,0,0-3.24-3.24H7.69a3.24,3.24,0,0,0-3.24,3.24V27.19a3.25,3.25,0,0,0,3.24,3.24H32.31a3.25,3.25,0,0,0,3.24-3.24V18.11h0Zm-29.81.65H34.26v2.59H5.74Zm2-3.89H32.31a2,2,0,0,1,1.95,1.95v.65H5.74v-.65A2,2,0,0,1,7.69,11ZM32.31,29.13H7.69a2,2,0,0,1-1.95-1.94V18.76H34.26v8.43h0A2,2,0,0,1,32.31,29.13Z"/>
		<path d="M16.76,22.65H9a.65.65,0,0,0-.64.65A.65.65,0,0,0,9,24h7.78a.65.65,0,1,0,0-1.3Z"/>
		<path d="M16.76,25.24H9a.65.65,0,0,0,0,1.3h7.78a.65.65,0,1,0,0-1.3Z"/>
		<path d="M29.72,21.35h-1.3a2,2,0,0,0-1.94,1.95v1.29a2,2,0,0,0,1.94,1.95h1.3a2,2,0,0,0,1.94-1.95V23.3A2,2,0,0,0,29.72,21.35Zm.65,3.24a.65.65,0,0,1-.65.65h-1.3a.65.65,0,0,1-.64-.65V23.3a.65.65,0,0,1,.64-.65h1.3a.65.65,0,0,1,.65.65Z"/>
	</symbol>

	<symbol id="goal" viewBox="0 0 40 40">
		<path d="M33.77,11.5l1.57-1.57a1,1,0,0,0,.22-1,.93.93,0,0,0-.81-.62l-2.91-.25-.25-2.91A.93.93,0,0,0,31,4.34a1,1,0,0,0-1,.22L28.4,6.13a16.2,16.2,0,1,0-8.45,30A16.2,16.2,0,0,0,33.77,11.5ZM30,9a1,1,0,0,0,.87.87l1.67.14L30.28,12.3l-2.47-.21L27.6,9.61l2.27-2.27ZM23.18,20a3.24,3.24,0,1,1-1.72-2.85l-2.18,2.18a1,1,0,0,0,0,1.34.94.94,0,0,0,1.34,0l2.18-2.18A3.19,3.19,0,0,1,23.18,20Zm-.34-4.23a5.05,5.05,0,0,0-2.89-.9,5.15,5.15,0,1,0,4.23,2.24l2.71-2.71A8.93,8.93,0,1,1,25.55,13Zm7.22,14.34A14.29,14.29,0,1,1,27,7.51L26,8.58a.92.92,0,0,0-.28.65v.1l.13,1.52a10.82,10.82,0,1,0,3.25,3.25l1.51.13h.33l.06,0h0l.06,0h0l.06,0,0,0,.06,0,0,0a.23.23,0,0,0,.07-.07l1.08-1.07a14.32,14.32,0,0,1-2.33,17.18Z"/>
	</symbol>

	<symbol id="email" viewBox="0 0 40 40">
		<path d="M32.34,8.58H7.62A2.64,2.64,0,0,0,5,11.22V28.8a2.64,2.64,0,0,0,2.64,2.64H32.34A2.64,2.64,0,0,0,35,28.8V11.22A2.64,2.64,0,0,0,32.34,8.58ZM32,10.34,20,22.28,8,10.34ZM6.74,28.43V11.58L15.2,20ZM8,29.68l8.47-8.47,3,2.94a.88.88,0,0,0,1.24,0l2.89-2.9L32,29.68Zm25.24-1.25L24.8,20l8.42-8.43Z"/>
	</symbol>

	<symbol id="team" viewBox="0 0 40 40">
		<path d="M31.43,20.77H28.26a4.71,4.71,0,0,0-1.25.17,4.72,4.72,0,0,0-4.23-2.6h-5.6A4.72,4.72,0,0,0,13,20.94a4.71,4.71,0,0,0-1.25-.17H8.53a4.75,4.75,0,0,0-4.74,4.74v5.07a2.85,2.85,0,0,0,2.84,2.85H33.32a2.86,2.86,0,0,0,2.85-2.85V25.51A4.75,4.75,0,0,0,31.43,20.77Zm-19,2.31v8.45H6.63a1,1,0,0,1-1-1V25.51a2.85,2.85,0,0,1,2.85-2.84H11.7a2.66,2.66,0,0,1,.75.1A3,3,0,0,0,12.43,23.08Zm13.2,8.45H14.33V23.08a2.86,2.86,0,0,1,2.85-2.85h5.6a2.86,2.86,0,0,1,2.85,2.85Zm8.64-1a1,1,0,0,1-1,1h-5.8V23.08c0-.11,0-.21,0-.31a2.66,2.66,0,0,1,.75-.1h3.17a2.84,2.84,0,0,1,2.84,2.84Z"/>
		<path d="M10.12,20.24A4.22,4.22,0,1,0,5.9,16,4.22,4.22,0,0,0,10.12,20.24Zm0-6.53A2.32,2.32,0,1,1,7.8,16,2.32,2.32,0,0,1,10.12,13.71Z"/>
		<path d="M20,17.84a5.64,5.64,0,1,0-5.63-5.63A5.64,5.64,0,0,0,20,17.84Zm0-9.37a3.74,3.74,0,1,1-3.74,3.74A3.74,3.74,0,0,1,20,8.47Z"/>
		<path d="M29.84,20.24A4.22,4.22,0,1,0,25.63,16,4.22,4.22,0,0,0,29.84,20.24Zm0-6.53A2.32,2.32,0,1,1,27.52,16,2.32,2.32,0,0,1,29.84,13.71Z"/>
	</symbol>

	<symbol id="schedule" viewBox="0 0 40 40">
		<path d="M23.28,33.31l-.81.17a1.32,1.32,0,0,0-1,1.53,1.36,1.36,0,0,0,.54.83,1.3,1.3,0,0,0,1,.21c.32-.06.65-.13,1-.21a1.3,1.3,0,1,0-.64-2.53Z"/>
		<path d="M33,15.79a1.29,1.29,0,0,0,.49.65,1.3,1.3,0,0,0,2-1.47c-.1-.32-.22-.63-.34-.93a1.31,1.31,0,0,0-2.43,1C32.77,15.26,32.86,15.53,33,15.79Z"/>
		<path d="M27.53,31.44l-.71.44a1.31,1.31,0,0,0-.48,1.78,1.4,1.4,0,0,0,.38.42,1.33,1.33,0,0,0,1.41.06c.28-.16.57-.34.84-.52a1.31,1.31,0,0,0-1.44-2.18Z"/>
		<path d="M36.24,19.44a1.31,1.31,0,1,0-2.61.1c0,.28,0,.56,0,.83a1.31,1.31,0,0,0,.55,1.1,1.41,1.41,0,0,0,.73.24,1.31,1.31,0,0,0,1.33-1.28C36.26,20.1,36.26,19.77,36.24,19.44Z"/>
		<path d="M32.74,28a1.32,1.32,0,0,0-1.83.26l-.52.65a1.3,1.3,0,0,0,.14,1.84l.1.08a1.33,1.33,0,0,0,1.75-.22c.21-.25.42-.52.62-.78A1.32,1.32,0,0,0,32.74,28Z"/>
		<path d="M34.66,23.28a1.3,1.3,0,0,0-1.64.85c-.08.27-.18.53-.27.79a1.3,1.3,0,0,0,.46,1.53,1.64,1.64,0,0,0,.29.16,1.32,1.32,0,0,0,1.69-.76c.12-.31.22-.62.32-.94A1.29,1.29,0,0,0,34.66,23.28Z"/>
		<path d="M17.58,33.49a13.35,13.35,0,0,1-3.35-1.06.05.05,0,0,0,0,0L13.45,32h0c-.45-.25-.88-.52-1.3-.81a13.63,13.63,0,0,1,0-22.34l.05,0a13.65,13.65,0,0,1,15.31-.13l-1,1.48c-.28.41-.11.71.39.66l4.43-.39a.73.73,0,0,0,.66-1L30.83,5.22c-.13-.48-.47-.54-.76-.13l-1,1.48A16.1,16.1,0,0,0,17.22,4.06c-.41.07-.83.16-1.23.26h-.06a16.14,16.14,0,0,0-8.94,6,.18.18,0,0,1,0,.07,3.46,3.46,0,0,0-.22.31c-.12.16-.24.33-.35.51l0,.06a16.13,16.13,0,0,0-2.58,9.5v0c0,.32,0,.66.08,1a.2.2,0,0,0,0,.07c0,.32.08.65.14,1a16.07,16.07,0,0,0,4.55,8.75v0h0a15.85,15.85,0,0,0,2.08,1.74,16.14,16.14,0,0,0,6.48,2.72,1.31,1.31,0,0,0,.46-2.58Z"/>
		<path d="M19.2,9.51a1.05,1.05,0,0,0-1.06,1.06V21.1l9.64,5a1,1,0,0,0,.48.12,1.06,1.06,0,0,0,.49-2l-8.5-4.39V10.57A1.05,1.05,0,0,0,19.2,9.51Z"/>
	</symbol>

	<symbol id="confirm" viewBox="0 0 40 40">
		<path d="M25.14,15.65l-5.82,5.82L16.89,19A1.35,1.35,0,0,0,15,21l3.38,3.39a1.39,1.39,0,0,0,1,.39,1.35,1.35,0,0,0,1-.39l6.77-6.78a1.35,1.35,0,0,0-1.91-1.92Z"/>
		<path d="M34.9,18.65A1.35,1.35,0,0,0,33.55,20a13.55,13.55,0,1,1-3.94-9.55,1.35,1.35,0,0,0,1.92,0,1.37,1.37,0,0,0,0-1.92A16.26,16.26,0,1,0,36.26,20,1.35,1.35,0,0,0,34.9,18.65Z"/>
	</symbol>

	<symbol id="project" viewBox="0 0 40 40">
		<path d="M24.58,9a10.25,10.25,0,0,0-9.41,18.22v6.63a3.35,3.35,0,0,0,3.36,3.34h2.94a3.35,3.35,0,0,0,3.36-3.34V27.21a10.06,10.06,0,0,0,4.34-4.46A10.27,10.27,0,0,0,24.58,9Zm-1,24.85A2.08,2.08,0,0,1,23,35.31a2.05,2.05,0,0,1-1.48.6H18.53a2.05,2.05,0,0,1-1.48-.6,2.08,2.08,0,0,1-.61-1.47v-.22h7.12Zm0-1.49H16.44V30.29h7.12ZM24,26.21l-.05,0a.63.63,0,0,0-.4.59V29H20.63V23.11a2.51,2.51,0,1,0-1.26,0V29H16.44v-2.2a.63.63,0,0,0-.4-.59l0,0a9,9,0,1,1,8,0Zm-4-4.28a1.25,1.25,0,1,1,1.25-1.25A1.25,1.25,0,0,1,20,21.93Z"/>
		<path d="M20,5a.64.64,0,0,0,.63-.64V.59a.63.63,0,1,0-1.26,0V4.35A.64.64,0,0,0,20,5Z"/>
		<path d="M37.32,17.32H33.61a.63.63,0,1,0,0,1.26h3.71a.63.63,0,1,0,0-1.26Z"/>
		<path d="M6.39,17.32H2.68a.63.63,0,1,0,0,1.26H6.39a.63.63,0,1,0,0-1.26Z"/>
		<path d="M31.64,5.2,29,7.8a.63.63,0,0,0-.13.69.61.61,0,0,0,.58.39h0a.67.67,0,0,0,.45-.18l2.59-2.6a.63.63,0,0,0-.89-.9Z"/>
		<path d="M11,8.7a.65.65,0,0,0,0-.9L8.36,5.2a.63.63,0,0,0-.89.9l2.59,2.6A.65.65,0,0,0,11,8.7Z"/>
	</symbol>

	<symbol id="repeat" viewBox="0 0 40 40">
		<path d="M21.89,5a15,15,0,0,0-15,15V20L4,15.53a1,1,0,0,0-1.59,1.06l4.3,6.47a.94.94,0,0,0,.68.41h.12a.92.92,0,0,0,.64-.25l6-5.38a1,1,0,1,0-1.28-1.42L8.84,20V20a13.08,13.08,0,1,1,3.83,9.23,1,1,0,0,0-1.35,0,.94.94,0,0,0,0,1.35A15,15,0,1,0,21.89,5Z"/>
	</symbol>

	<symbol id="delete" viewBox="0 0 40 40">
		<path d="M33.51,10.17a.64.64,0,0,0-.45-.17h-6L25.69,6.75a2.6,2.6,0,0,0-1.05-1.22A2.69,2.69,0,0,0,23.11,5H16.89a2.69,2.69,0,0,0-1.53.51,2.6,2.6,0,0,0-1,1.22L13,10h-6a.58.58,0,0,0-.62.62v1.24a.64.64,0,0,0,.17.45.6.6,0,0,0,.45.17H8.81V31a4.22,4.22,0,0,0,.91,2.75,2.74,2.74,0,0,0,2.2,1.14H28.08a2.71,2.71,0,0,0,2.2-1.17,4.43,4.43,0,0,0,.91-2.79V12.48h1.87a.6.6,0,0,0,.45-.17.64.64,0,0,0,.17-.45V10.62A.64.64,0,0,0,33.51,10.17ZM16.6,7.72a.59.59,0,0,1,.33-.21h6.16a.59.59,0,0,1,.33.21L24.35,10h-8.7ZM28.71,30.91a2.21,2.21,0,0,1-.14.78,1.7,1.7,0,0,1-.28.53c-.1.11-.17.16-.21.16H11.92s-.11-.05-.21-.16a1.7,1.7,0,0,1-.28-.53,2.21,2.21,0,0,1-.14-.78V12.48H28.71V30.91Z"/>
		<path d="M14.4,28.65h1.25a.6.6,0,0,0,.44-.17.61.61,0,0,0,.18-.45V16.84a.61.61,0,0,0-.18-.45.57.57,0,0,0-.44-.17H14.4a.57.57,0,0,0-.44.17.61.61,0,0,0-.18.45V28a.61.61,0,0,0,.18.45A.6.6,0,0,0,14.4,28.65Z"/>
		<path d="M19.38,28.65h1.24a.64.64,0,0,0,.45-.17.6.6,0,0,0,.17-.45V16.84a.58.58,0,0,0-.62-.62H19.38a.58.58,0,0,0-.62.62V28a.6.6,0,0,0,.17.45A.64.64,0,0,0,19.38,28.65Z"/>
		<path d="M24.35,28.65H25.6a.6.6,0,0,0,.44-.17.61.61,0,0,0,.18-.45V16.84a.61.61,0,0,0-.18-.45.57.57,0,0,0-.44-.17H24.35a.57.57,0,0,0-.44.17.61.61,0,0,0-.18.45V28a.61.61,0,0,0,.18.45A.6.6,0,0,0,24.35,28.65Z"/>
	</symbol>

	<symbol id="edit" viewBox="0 0 40 40">
		<path d="M23.29,11l5.52,5.52-14,14L9.31,25ZM33,9.67,30.54,7.2a2.44,2.44,0,0,0-3.45,0L24.73,9.56l5.52,5.53L33,12.33A1.87,1.87,0,0,0,33,9.67ZM6.42,32.74a.63.63,0,0,0,.76.75L13.33,32,7.81,26.48Z"/>
	</symbol>

	<symbol id="view" viewBox="0 0 40 40">
		<path d="M37.86,19.3c-.33-.45-8-10.83-17.86-10.83S2.47,18.85,2.14,19.3a1.2,1.2,0,0,0,0,1.4c.33.45,8,10.83,17.86,10.83S37.53,21.15,37.86,20.7A1.2,1.2,0,0,0,37.86,19.3ZM20,29.14c-7.24,0-13.52-6.89-15.37-9.14,1.85-2.26,8.11-9.14,15.37-9.14S33.52,17.75,35.37,20C33.52,22.26,27.26,29.14,20,29.14Z"/>
		<path d="M20,12.85A7.15,7.15,0,1,0,27.15,20,7.15,7.15,0,0,0,20,12.85Zm0,11.92A4.77,4.77,0,1,1,24.77,20,4.78,4.78,0,0,1,20,24.77Z"/>
	</symbol>

	<symbol id="arrow-up" viewBox="0 0 40 40">
		<path d="M30.84,15.36,20.33,5.12a.5.5,0,0,0-.7,0L9.11,15.36a.51.51,0,0,0-.15.36.55.55,0,0,0,.15.36L12,18.86a.5.5,0,0,0,.7,0l4.81-4.72V34.52a.5.5,0,0,0,.5.5h4a.5.5,0,0,0,.5-.5V14.14l4.81,4.72a.5.5,0,0,0,.7,0l2.85-2.78a.51.51,0,0,0,.15-.36A.48.48,0,0,0,30.84,15.36Z"/>
	</symbol>

	<symbol id="arrow-down" viewBox="0 0 40 40">
		<path d="M31,24.19a.48.48,0,0,0-.16-.36L28,21.05a.5.5,0,0,0-.7,0l-4.81,4.71V5.38a.5.5,0,0,0-.5-.5H18a.5.5,0,0,0-.5.5V25.76l-4.81-4.71a.5.5,0,0,0-.7,0L9.09,23.83a.48.48,0,0,0-.16.36.48.48,0,0,0,.16.35L19.6,34.78a.5.5,0,0,0,.7,0L30.81,24.54A.48.48,0,0,0,31,24.19Z"/>
	</symbol>

	<symbol id="tmp8" viewBox="0 0 40 40">
	</symbol>

	<use xlink:href="#search" x="0" y="0" width="40" height="40" fill="#B0B4B8"></use>
	<use xlink:href="#calendar" x="40" y="0" width="40" height="40" fill="#B0B4B8"></use>
	<use xlink:href="#down" x="80" y="0" width="40" height="40" fill="#3A404E"></use>
	
	<view id="_search" viewBox="0 0 40 40"/>
	<view id="_calendar" viewBox="40 0 40 40"/>
	<view id="_down" viewBox="80 0 40 40"/>

</svg>